<?xml version="1.0" encoding="utf-8"?>
<!-- Generator: Adobe Illustrator 19.0.0, SVG Export Plug-In . SVG Version: 6.00 Build 0)  -->
<svg version="1.1" id="Layer_1" xmlns="http://www.w3.org/2000/svg" xmlns:xlink="http://www.w3.org/1999/xlink" x="0px" y="0px"
	 viewBox="-567 946.7 863.6 109.3" style="enable-background:new -567 946.7 863.6 109.3;" xml:space="preserve">
<style type="text/css">
	.st0{fill:#FFFFFF;}
</style>
<title>UCB AD_Logo_White</title>
<g>
	<path class="st0" d="M-170.3,964.6l-23.6,62.2h7.4l6.5-17.5h27l6.5,17.5h7.4l-23.2-62.2H-170.3z M-155.5,1002.6h-22l11-29.9
		L-155.5,1002.6z"/>
	<path class="st0" d="M-113.5,979.7c-5.1,0-9.5,2.8-12.7,8.2v-8.3l-7.1,1.5v45.8h7.1v-29.2c3.2-7.3,7.4-11.2,12.1-11.2
		c2.3,0,4.5,0.7,6.6,1.9l0.6,0.3l1.8-6.7l-0.3-0.2C-107.8,980.4-110.8,979.7-113.5,979.7z"/>
	<path class="st0" d="M-74.5,1019.7c-2.3,1-5.3,2.1-8.4,2.1c-2,0-3.4-0.5-4.4-1.5c-1.2-1.3-1.8-3.4-1.7-6.4l0.7-26.3h14.9l0.3-6.4
		h-15l0.3-10.5h-6.8l-0.3,10.3l-6.7,1.6l-0.4,4.7l6.9,0.4l-0.7,26c-0.2,5.2,0.9,9,3.3,11.4c2.1,2.1,5.2,3.2,9.3,3.2
		c3.2,0,7-0.9,10.2-2.4l0.4-0.2l-1.3-6.3L-74.5,1019.7z"/>
	<path class="st0" d="M-49.4,1000.5l-0.2,0c-5.7-1.7-10.6-3.2-10.6-7.9c0-4,3.2-6.4,8.5-6.4c3.8,0,8.3,1.2,12,3.3l0.5,0.3l2.1-6.5
		l-0.4-0.2c-4.2-2.2-9.2-3.4-13.8-3.4c-9.2,0-15.7,5.5-15.7,13.4c0,8.1,7.2,11.3,13.4,13.2l0.6,0.2c5.3,1.7,10.3,3.2,10.3,8
		c0,4.9-4.8,7-9.6,7c-4.4,0-9.1-1.5-12.9-4l-0.6-0.4l-2,6.6l0.3,0.2c3.9,2.5,9.7,4.1,15,4.1c9.7,0,16.6-5.8,16.6-14
		C-35.9,1005.6-42.7,1002.4-49.4,1000.5z"/>
	<polygon class="st0" points="11.3,1000.1 11.3,982.7 4.9,982.7 4.9,1000.1 -12,1000.1 -12.3,1006.5 4.9,1006.5 4.9,1024 11.3,1024
		11.3,1006.5 28.4,1006.5 28,1000.1 	"/>
	<path class="st0" d="M71.7,964.6H54.6v62.2h16.7c20.9,0,33.4-11.8,33.4-31.5C104.6,976.6,91.7,964.6,71.7,964.6z M61.8,971.4h9.5
		c16.3,0,26,9.1,26,24.4c0,15.4-9.4,24.3-25.8,24.3h-9.7V971.4z"/>
	<path class="st0" d="M132,979.7c-12.5,0-21.7,10.3-21.7,24.6c0,14,9.1,23.8,22.1,23.8c5.4,0,10.6-1.4,14.7-3.9l0.3-0.2l-1.4-6.6
		l-0.6,0.4c-3.5,2.3-8.2,3.6-12.7,3.6c-8.9,0-15-6.8-15.2-16.8l30.2-0.2l0.1-0.4c0.6-2,1-4.9,1-7.3
		C148.9,986.4,142.3,979.7,132,979.7z M131.7,986.2c6.4,0,10.3,4.1,10.3,11.1c0,0.3,0,1,0,1.5l-23.9,0.1
		C119.1,992.4,123.6,986.2,131.7,986.2z"/>
	<path class="st0" d="M171.7,1000.5l-0.2,0c-5.7-1.7-10.6-3.2-10.6-7.9c0-4,3.2-6.4,8.5-6.4c3.8,0,8.3,1.2,12,3.3l0.5,0.3l2.1-6.5
		l-0.4-0.2c-4.2-2.2-9.2-3.4-13.8-3.4c-9.2,0-15.7,5.5-15.7,13.4c0,8.1,7.1,11.3,13.4,13.2l0.6,0.2c5.3,1.7,10.3,3.2,10.3,8
		c0,4.9-4.8,7-9.6,7c-4.4,0-9.1-1.5-12.9-4l-0.6-0.4l-2,6.6l0.3,0.2c3.9,2.5,9.7,4.1,15,4.1c9.7,0,16.6-5.8,16.6-14
		C185.3,1005.6,178.5,1002.4,171.7,1000.5z"/>
	<polygon class="st0" points="193.4,1026.8 200.5,1026.8 200.5,979.6 193.4,981 	"/>
	<path class="st0" d="M197,961.9c-3.2,0-4.6,2.5-4.6,4.8c0,2.4,1.4,5,4.6,5s4.6-2.6,4.6-5C201.6,964.3,200.1,961.9,197,961.9z"/>
	<path class="st0" d="M250.9,981.3l-12.8,1c-3.2-1.7-6.8-2.6-10.7-2.6c-10.5,0-18.1,7.3-18.1,17.3c0,5.6,2.5,10.6,6.7,13.6
		c-4.2,1.9-6.8,5.2-6.8,8.6c0,3,1.8,5.5,5.1,7.1c-5.3,1.8-8.7,6.2-8.7,11.1c0,8.1,8.3,13.6,20.8,13.6c13.5,0,24.1-7.5,24.1-17.1
		c0-8.1-6.4-12.2-19.1-12.2h-5.8c-8.5,0-9.7-2-9.7-4.1c0-2.6,3.3-4.3,4.5-4.8c2.2,0.7,4.1,1.2,6.6,1.2c10.2,0,17.9-7.3,17.9-16.9
		c0-3.4-1.2-7.1-2.9-9.5l9.2,0.9L250.9,981.3z M227.2,1045.1c-8.8,0-14.8-3.5-14.8-8.7c0-3.5,3.5-6.9,8.7-8.3c2.3,0.2,6,0.3,9.4,0.3
		c9.2,0,13.1,2,13.1,6.6C243.6,1040.7,236.4,1045.1,227.2,1045.1z M227.3,1008.1c-6.6,0-11.1-4.4-11.1-11c0-6.8,4.3-11.4,10.8-11.4
		c6.8,0,11,4.3,11,11.2C238,1003.5,233.7,1008.1,227.3,1008.1z"/>
	<path class="st0" d="M277.5,979.7c-4.7,0-10.3,2.5-14.8,6.7v-6.8l-7.1,1.5v45.8h7.1v-34.3c3.9-3.8,8.8-6.1,13.1-6.1
		c6.5,0,9.4,3.3,9.4,10.9v29.5h7.1v-31.2C292.3,985.5,286.9,979.7,277.5,979.7z"/>
</g>
<path class="st0" d="M-372.1,1024.5c-3.8,0-7.3-5.4-11-9.9c-7.7-9.3-9.7-11.4-9.7-12.4c0-0.8,6.8-5.6,12.3-11c3.4-3.3,7.2-8,7.2-9
	c0-0.3-0.4-0.5-1.3-0.5c-1.3,0-7.7,0.3-9.2,0.3c-1.4,0-3.4-0.3-4.5-0.3c-1.4,0-2,0.2-2,1.1c0,0.9,0.6,1.2,2.2,1.2
	c4.9,0,5.2,0.2,5.2,2c0,2.3-1,4.2-5.3,8.3c-3.5,3.2-15,13.4-17.8,13.4c-0.3,0-0.5-0.3-0.5-0.8c0-18,0.7-30.3,0.7-47.1
	c0-3.5,0.2-8.2,0.2-9.6c0-0.7-0.2-1-0.8-1c-1,0-7.5,2.4-15.4,2.4c-1.2,0-1.4,0.4-1.4,1.5c0,0.8,0.4,1.1,5,1.1c3,0,3.9,1,3.9,8.8
	c0,23.3-0.3,55.9-0.3,59.1c0,1.7-1,1.7-4.7,1.7c-2.6,0-3.2,0.6-3.2,1.4s0.7,1.1,3.2,1.1c1.5,0,5.6-0.2,9.4-0.2
	c3.5,0,8.6,0.2,10.3,0.2c2.4,0,3,0,3-1.1c0-0.9-0.4-1.4-3-1.4c-6.8,0-6.6,0-6.6-5.2v-7c0-1,1.5-1.8,3.3-2.9c1.8-1.1,3.4-2.3,3.9-2.3
	c0.7,0,5.3,7,9.9,12.2c4.6,5.2,5.6,8,7.6,8c1.5,0,4.8-0.1,6.2-0.1c1,0,2.4,0.1,3.8,0.1c2.4,0,3.2-0.2,3.2-1
	S-369.5,1024.4-372.1,1024.5 M-328.6,1023.9c-2.6,0-2.8,0.7-2.8,1.4c0,0.8,0.2,1.1,2.8,1.1c1.5,0,7.4-0.2,11.1-0.2
	c2,0,4.4,0.2,6.1,0.2c4,0,4.7,0,4.7-1.1c0-0.9,0.2-1.6-5.3-1.6c-2,0-2.8-1.2-2.8-10.4c0-3.2,0.6-11.9,0.6-53.9
	c0-3.3,0.6-7.3,0.6-8.6s-0.6-1.8-1.1-1.8c-4.4,1.3-8.9,2.2-13.5,2.5c-1.9,0.1-2.8,0-2.8,1.3s1.1,1.4,3.1,1.4c5,0,5.6,0,5.6,7v60.8
	C-322.2,1024-324.1,1023.9-328.6,1023.9 M-289.1,982.9c5.1,0,11.6,8.2,11.6,10.9c0,0.7-0.1,0.9-1.3,1.1c-8.3,1.3-14.2,2.8-20,2.8
	c-1.3,0-1.3-0.1-1.3-0.7C-300.1,995.5-297.5,982.9-289.1,982.9 M-286,1028.2c8.9,0,18.3-7,18.3-7.5c0-0.2-0.3-0.9-0.9-0.9
	s-4.6,2.6-11.9,2.6c-8.4,0-20.2-4.1-20.2-19.3c0-2.5,0.3-3.1,2.1-3.2c8.9-0.6,17.8-1.9,26.5-3.9c3-0.7,4.5-1.1,4.5-1.5
	c0-0.9-1.8-3.5-3.6-5.7c-4-4.6-11-8.3-16.8-8.3c-10,0-20.5,9.3-20.5,24.8C-308.5,1023.8-295,1028.2-286,1028.2 M-352.7,982.9
	c5.1,0,11.6,8.2,11.6,10.9c0,0.7-0.1,0.9-1.3,1.1c-8.3,1.3-14.2,2.8-20,2.8c-1.3,0-1.3-0.1-1.3-0.7
	C-363.8,995.4-361.1,982.9-352.7,982.9 M-349.7,1028.2c8.9,0,18.3-7,18.3-7.5c0-0.2-0.3-0.9-0.9-0.9s-4.6,2.6-11.9,2.6
	c-8.4,0-20.2-4.1-20.2-19.3c0-2.5,0.3-3.1,2.1-3.2c8.9-0.6,17.8-1.9,26.5-3.9c3-0.7,4.5-1.1,4.5-1.5c0-0.9-1.8-3.5-3.6-5.7
	c-4-4.6-11-8.3-16.8-8.3c-10,0-20.5,9.3-20.5,24.8C-372.2,1023.8-358.7,1028.2-349.7,1028.2 M-429.8,1025.3c0-1-0.1-1.3-3-1.3
	c-8.2,0-8.5,0-8.5-5.4v-22.7c0-4.6,2.4-7.3,8.8-7.3c5.5,0,6.8,4.5,8.4,4.5c0.7,0,2.4-4.9,2.4-6c0-2.9-5.1-5.3-7.1-5.3
	c-5.2,0-10.4,5.7-12,5.7c-0.4,0-0.5-0.8-0.5-1.8c0-0.3,0.2-2.8,0.2-3.3c0-0.9-0.5-1.2-0.9-1.2c-1.8,0-3.9,0.5-5.6,0.5
	c-2.2,0-4.3-0.2-8-0.2c-1.9,0-1.8,0.3-1.8,1.7s0,1.1,2,1.1c6.2,0,6,0.2,6,7.7v30.2c0,1.5-0.3,1.7-4.9,1.7c-2.6,0-2.8,0.2-2.8,1.3
	s0.2,1.1,2.8,1.1c1.5,0,5.3-0.6,9-0.6c3.5,0,10.9,0.6,12.5,0.6C-429.8,1026.4-429.7,1026.6-429.8,1025.3 M-481.3,982.9
	c5.1,0,11.6,8.2,11.6,10.9c0,0.7-0.1,0.9-1.3,1.1c-8.3,1.3-14.2,2.8-20,2.8c-1.3,0-1.3-0.1-1.3-0.7
	C-492.4,995.4-489.7,982.9-481.3,982.9 M-478.3,1028.2c8.9,0,18.3-7,18.3-7.5c0-0.2-0.3-0.9-0.9-0.9c-0.6,0-4.6,2.6-11.9,2.6
	c-8.4,0-20.2-4.1-20.2-19.3c0-2.5,0.3-3.1,2.1-3.2c8.9-0.6,17.8-1.9,26.5-3.9c3-0.7,4.5-1.1,4.5-1.5c0-0.9-1.8-3.5-3.6-5.7
	c-4-4.6-11-8.3-16.8-8.3c-10,0-20.5,9.3-20.5,24.8C-500.8,1023.8-487.3,1028.2-478.3,1028.2 M-533.5,1025.3c-4,0-8.1-0.9-9.5-2.4
	c-1.1-1.3-1.5-8.4-1.5-9.5v-22.7c0-2.8,1-3.3,4.6-3.3c13.8,0,23.2,8.9,23.2,20.3C-516.8,1018.7-523.9,1025.3-533.5,1025.3
	 M-544.5,955.7c0-2.5,0.4-3.7,8.8-3.7c11.5,0,16.9,12.2,16.9,18.5c0,10-4.2,12.4-7.9,15.2c-4.3-0.5-8.7-0.8-13.1-0.8
	c-3.1,0-4.7,0.2-4.7-1.8V955.7z M-518.2,988.3c-2.5-1.3-4.9-1.9-4.9-2.2s2.8-1.8,5.2-3.4c4-2.8,9.5-7.2,9.5-16.2S-515.5,949-532,949
	c-11.4,0-17.5,0.8-20.2,0.8c-4.5,0-8.4-0.1-12.3-0.1c-2.2,0-2.5,0.1-2.5,1c0,1.5,0.5,1.6,6.2,1.6c3.5,0,5.6,1.1,5.6,11.2v58.3
	c0,1.9-0.3,2.2-6,2.2c-2.8,0-3.5,0.2-3.5,1.5c0,1.3,0.9,1.4,2.2,1.4c4.1,0,6.8-0.5,12.2-0.5c5.6,0,10.9,1.3,16.2,1.3
	c17.6,0,29.4-6.7,29.4-20.9C-504.8,995.6-512.3,991.3-518.2,988.3 M-221.6,981.4c-1.5,0-4.5,0.4-6.2,0.4c-3,0-5-0.2-7.9-0.2
	c-2,0-2.3,0-2.3,1.4c0,1.1,0.5,1.1,3.9,1.1c3.8,0,3.8,0.7,3.8,4c0,1.5-4,13-6.6,21c-1.8,5.2-2.4,6.7-3.2,6.7c-0.4,0-1.8-1.9-2.7-4.2
	c-6.6-17-9.5-20.8-9.5-24c0-2.5,0.7-3.2,3.3-3.2c2.3,0,2.8-0.1,2.8-1.1c0-1.2-0.5-1.7-2.8-1.7c-3.5,0-7.4,0.3-10.5,0.3
	c-2.6,0-3.4-0.2-6.5-0.2c-2,0-2.3,0.6-2.3,1.5c0,1,0.1,1.1,2.3,1.1c2,0,2.8,0.5,5.5,7.2c6.1,14.3,14.9,34.7,14.9,36
	c0,3.3-9.5,16.3-13.5,21.3c-3.8,4.8-8.9,5.4-8.9,6.1c0,0.7,1.1,1.1,3,1.1c2.4,0,3.2-0.9,6.5-1.3c2.4-0.3,3.8-0.4,5-2.9
	c3.5-7.3,8.5-16.2,15.4-33.1c8.7-21.2,13.6-34.4,16-34.4c1.3,0,2.9-0.5,2.9-1.5c0-1.2-0.6-1.3-2.3-1.3"/>
</svg>
